<svg width="300" height="300" viewBox="0 0 300 300" fill="none" xmlns="http://www.w3.org/2000/svg">
<g clip-path="url(#clip0_112_4)">
<path d="M162.69 246.174C160.786 249.599 159.834 251.311 158.936 252.313C154.167 257.635 145.833 257.635 141.063 252.313C140.165 251.311 139.213 249.599 137.309 246.174L38.1535 67.8255C36.3398 64.5633 35.4329 62.9321 35.058 61.6722C33.0724 54.9988 37.1644 48.0419 43.9619 46.5346C45.2452 46.25 47.1115 46.25 50.844 46.25H249.155C252.888 46.25 254.754 46.25 256.037 46.5346C262.835 48.0419 266.927 54.9988 264.941 61.6722C264.566 62.9321 263.66 64.5633 261.846 67.8255L162.69 246.174Z" fill="#000DFF"/>
<path d="M150 223.307L64.2632 69.0958H235.736L150 223.307Z" fill="#3D5BFF"/>
<path d="M152.622 182.038C151.478 184.094 148.521 184.094 147.378 182.038L97.2257 91.8307C96.1139 89.831 97.5598 87.3729 99.8477 87.3729H200.152C202.439 87.3729 203.885 89.831 202.774 91.8306L152.622 182.038Z" fill="#9499FF" fill-opacity="0.9"/>
<path d="M132 109.361H167.2V143.631H132V109.361Z" fill="#F2ED51"/>
<path d="M132 100.223H159.5L167.2 109.361H132V100.223Z" fill="#F2ED51"/>
<path d="M159.5 100.223L167.2 109.361H159.5L159.5 100.223Z" fill="#939034"/>
<path d="M142.314 109.133C142.193 109.133 142.085 109.091 141.992 109.007C141.908 108.914 141.866 108.806 141.866 108.685C141.866 108.554 141.908 108.447 141.992 108.363C142.076 108.279 142.179 108.237 142.3 108.237C142.431 108.237 142.538 108.284 142.622 108.377C142.715 108.461 142.762 108.564 142.762 108.685C142.762 108.806 142.715 108.914 142.622 109.007C142.538 109.091 142.435 109.133 142.314 109.133Z" fill="black"/>
<path d="M142.314 118.043C142.193 118.043 142.085 118.001 141.992 117.917C141.908 117.824 141.866 117.716 141.866 117.595C141.866 117.464 141.908 117.357 141.992 117.273C142.076 117.189 142.179 117.147 142.3 117.147C142.431 117.147 142.538 117.194 142.622 117.287C142.715 117.371 142.762 117.474 142.762 117.595C142.762 117.716 142.715 117.824 142.622 117.917C142.538 118.001 142.435 118.043 142.314 118.043Z" fill="black"/>
<path d="M142.314 126.953C142.193 126.953 142.085 126.911 141.992 126.827C141.908 126.734 141.866 126.626 141.866 126.505C141.866 126.374 141.908 126.267 141.992 126.183C142.076 126.099 142.179 126.057 142.3 126.057C142.431 126.057 142.538 126.104 142.622 126.197C142.715 126.281 142.762 126.384 142.762 126.505C142.762 126.626 142.715 126.734 142.622 126.827C142.538 126.911 142.435 126.953 142.314 126.953Z" fill="black"/>
<path d="M142.314 135.863C142.193 135.863 142.085 135.821 141.992 135.737C141.908 135.643 141.866 135.536 141.866 135.415C141.866 135.284 141.908 135.177 141.992 135.093C142.076 135.009 142.179 134.967 142.3 134.967C142.431 134.967 142.538 135.013 142.622 135.107C142.715 135.191 142.762 135.293 142.762 135.415C142.762 135.536 142.715 135.643 142.622 135.737C142.538 135.821 142.435 135.863 142.314 135.863Z" fill="black"/>
<path d="M146.365 109.133C146.244 109.133 146.137 109.091 146.043 109.007C145.959 108.914 145.917 108.806 145.917 108.685C145.917 108.554 145.959 108.447 146.043 108.363C146.127 108.279 146.23 108.237 146.351 108.237C146.482 108.237 146.589 108.284 146.673 108.377C146.767 108.461 146.813 108.564 146.813 108.685C146.813 108.806 146.767 108.914 146.673 109.007C146.589 109.091 146.487 109.133 146.365 109.133Z" fill="black"/>
<path d="M146.366 118.043C146.244 118.043 146.137 118.001 146.044 117.917C145.96 117.824 145.918 117.716 145.918 117.595C145.918 117.464 145.96 117.357 146.044 117.273C146.128 117.189 146.23 117.147 146.352 117.147C146.482 117.147 146.59 117.194 146.674 117.287C146.767 117.371 146.814 117.474 146.814 117.595C146.814 117.716 146.767 117.824 146.674 117.917C146.59 118.001 146.487 118.043 146.366 118.043Z" fill="black"/>
<path d="M146.366 126.953C146.244 126.953 146.137 126.911 146.044 126.827C145.96 126.734 145.918 126.626 145.918 126.505C145.918 126.374 145.96 126.267 146.044 126.183C146.128 126.099 146.23 126.057 146.352 126.057C146.482 126.057 146.59 126.104 146.674 126.197C146.767 126.281 146.814 126.384 146.814 126.505C146.814 126.626 146.767 126.734 146.674 126.827C146.59 126.911 146.487 126.953 146.366 126.953Z" fill="black"/>
<path d="M146.366 135.863C146.244 135.863 146.137 135.821 146.044 135.737C145.96 135.643 145.918 135.536 145.918 135.415C145.918 135.284 145.96 135.177 146.044 135.093C146.128 135.009 146.23 134.967 146.352 134.967C146.482 134.967 146.59 135.013 146.674 135.107C146.767 135.191 146.814 135.293 146.814 135.415C146.814 135.536 146.767 135.643 146.674 135.737C146.59 135.821 146.487 135.863 146.366 135.863Z" fill="black"/>
<path d="M150.417 109.133C150.296 109.133 150.189 109.091 150.095 109.007C150.011 108.914 149.969 108.806 149.969 108.685C149.969 108.554 150.011 108.447 150.095 108.363C150.179 108.279 150.282 108.237 150.403 108.237C150.534 108.237 150.641 108.284 150.725 108.377C150.819 108.461 150.865 108.564 150.865 108.685C150.865 108.806 150.819 108.914 150.725 109.007C150.641 109.091 150.539 109.133 150.417 109.133Z" fill="black"/>
<path d="M150.417 118.043C150.296 118.043 150.189 118.001 150.095 117.917C150.011 117.824 149.969 117.716 149.969 117.595C149.969 117.464 150.011 117.357 150.095 117.273C150.179 117.189 150.282 117.147 150.403 117.147C150.534 117.147 150.641 117.194 150.725 117.287C150.819 117.371 150.865 117.474 150.865 117.595C150.865 117.716 150.819 117.824 150.725 117.917C150.641 118.001 150.539 118.043 150.417 118.043Z" fill="black"/>
<path d="M150.417 126.953C150.296 126.953 150.189 126.911 150.095 126.827C150.011 126.734 149.969 126.626 149.969 126.505C149.969 126.374 150.011 126.267 150.095 126.183C150.179 126.099 150.282 126.057 150.403 126.057C150.534 126.057 150.641 126.104 150.725 126.197C150.819 126.281 150.865 126.384 150.865 126.505C150.865 126.626 150.819 126.734 150.725 126.827C150.641 126.911 150.539 126.953 150.417 126.953Z" fill="black"/>
<path d="M150.417 135.863C150.296 135.863 150.189 135.821 150.095 135.737C150.011 135.643 149.969 135.536 149.969 135.415C149.969 135.284 150.011 135.177 150.095 135.093C150.179 135.009 150.282 134.967 150.403 134.967C150.534 134.967 150.641 135.013 150.725 135.107C150.819 135.191 150.865 135.293 150.865 135.415C150.865 135.536 150.819 135.643 150.725 135.737C150.641 135.821 150.539 135.863 150.417 135.863Z" fill="black"/>
<path d="M154.469 109.133C154.348 109.133 154.24 109.091 154.147 109.007C154.063 108.914 154.021 108.806 154.021 108.685C154.021 108.554 154.063 108.447 154.147 108.363C154.231 108.279 154.334 108.237 154.455 108.237C154.586 108.237 154.693 108.284 154.777 108.377C154.87 108.461 154.917 108.564 154.917 108.685C154.917 108.806 154.87 108.914 154.777 109.007C154.693 109.091 154.59 109.133 154.469 109.133Z" fill="black"/>
<path d="M154.469 118.043C154.348 118.043 154.24 118.001 154.147 117.917C154.063 117.824 154.021 117.716 154.021 117.595C154.021 117.464 154.063 117.357 154.147 117.273C154.231 117.189 154.334 117.147 154.455 117.147C154.586 117.147 154.693 117.194 154.777 117.287C154.87 117.371 154.917 117.474 154.917 117.595C154.917 117.716 154.87 117.824 154.777 117.917C154.693 118.001 154.59 118.043 154.469 118.043Z" fill="black"/>
<path d="M154.469 126.953C154.348 126.953 154.24 126.911 154.147 126.827C154.063 126.734 154.021 126.626 154.021 126.505C154.021 126.374 154.063 126.267 154.147 126.183C154.231 126.099 154.334 126.057 154.455 126.057C154.586 126.057 154.693 126.104 154.777 126.197C154.87 126.281 154.917 126.384 154.917 126.505C154.917 126.626 154.87 126.734 154.777 126.827C154.693 126.911 154.59 126.953 154.469 126.953Z" fill="black"/>
<path d="M154.469 135.863C154.348 135.863 154.24 135.821 154.147 135.737C154.063 135.643 154.021 135.536 154.021 135.415C154.021 135.284 154.063 135.177 154.147 135.093C154.231 135.009 154.334 134.967 154.455 134.967C154.586 134.967 154.693 135.013 154.777 135.107C154.87 135.191 154.917 135.293 154.917 135.415C154.917 135.536 154.87 135.643 154.777 135.737C154.693 135.821 154.59 135.863 154.469 135.863Z" fill="black"/>
<path d="M117.229 90.6308C117.457 90.8588 117.571 91.1528 117.571 91.5128C117.571 91.8128 117.505 92.1188 117.373 92.4308L112.765 103.231L112.567 103.321L108.031 90.6308H109.561L113.323 101.287L117.157 92.4308C117.289 92.1308 117.355 91.8188 117.355 91.4948C117.355 91.1708 117.265 90.9188 117.085 90.7388L117.229 90.6308Z" fill="white"/>
<path d="M182.022 97.237C182.022 95.053 182.55 93.397 183.606 92.269C184.674 91.129 186.042 90.559 187.71 90.559C189.378 90.559 190.704 91.051 191.688 92.035C192.684 93.019 193.182 94.591 193.182 96.751C193.182 98.911 192.654 100.543 191.598 101.647C190.542 102.751 189.132 103.303 187.368 103.303C185.844 103.303 184.596 102.865 183.624 101.989C183.12 101.533 182.724 100.903 182.436 100.099C182.16 99.283 182.022 98.329 182.022 97.237ZM187.656 90.739C186.444 90.739 185.448 91.279 184.668 92.359C183.9 93.439 183.516 95.023 183.516 97.111C183.516 99.199 183.882 100.723 184.614 101.683C185.346 102.643 186.318 103.123 187.53 103.123C188.754 103.123 189.75 102.583 190.518 101.503C191.298 100.411 191.688 98.833 191.688 96.769C191.688 94.693 191.316 93.169 190.572 92.197C189.84 91.225 188.868 90.739 187.656 90.739Z" fill="white"/>
<path d="M146.323 169.484H146.089L149.347 163.04L145.783 156.884H147.295L150.391 162.212L153.091 156.884H153.307L150.517 162.428L154.621 169.484H153.109L149.473 163.238L146.323 169.484Z" fill="white"/>
</g>
<defs>
<clipPath id="clip0_112_4">
<rect width="300" height="300" fill="white"/>
</clipPath>
</defs>
</svg>
